<svg width="60" height="86" viewBox="0 0 60 86" fill="none" xmlns="http://www.w3.org/2000/svg">
<path d="M50.5223 46H6.64538C5.74591 46 5 45.2541 5 44.3546C5 43.4551 5.74591 42.7092 6.64538 42.7092H50.5223C51.4217 42.7092 52.1676 43.4551 52.1676 44.3546C52.1676 45.2541 51.4217 46 50.5223 46Z" fill="#8B8B8B"/>
<path d="M10.3752 44.354H7.08447L7.19414 17.9621C7.19414 16.0973 8.04976 14.3642 9.51964 13.2234L24.8765 1.26694C27.0484 -0.422315 30.0979 -0.422315 32.2917 1.26694L47.6486 13.2015C49.0966 14.3423 49.9741 16.1192 49.9741 17.9621V44.354H46.6833V17.984C46.6833 17.1504 46.2884 16.3386 45.6303 15.8121L30.2734 3.87762C29.2862 3.10977 27.904 3.10977 26.8949 3.87762L11.538 15.8341C10.8798 16.3387 10.4849 17.1504 10.4849 17.984L10.3752 44.354Z" fill="#8B8B8B"/>
<path d="M34.0685 46H23.0992C22.1998 46 21.4539 45.2541 21.4539 44.3547V36.6762C21.4539 33.9558 23.6696 31.7401 26.39 31.7401H30.7777C33.4981 31.7401 35.7138 33.9558 35.7138 36.6762V44.3547C35.7138 45.2541 34.9679 46 34.0685 46ZM24.7446 42.7093H32.4231V36.6762C32.4231 35.7767 31.6772 35.0308 30.7777 35.0308H26.39C25.4905 35.0308 24.7446 35.7767 24.7446 36.6762V42.7093Z" fill="#8B8B8B"/>
<path d="M23.0992 27.9008H18.7115C16.6055 27.9008 14.8723 26.1677 14.8723 24.0616V20.7708C14.8723 18.6647 16.6055 16.9316 18.7115 16.9316H23.0992C25.2053 16.9316 26.9385 18.6647 26.9385 20.7708V24.0616C26.9385 26.1677 25.2053 27.9008 23.0992 27.9008ZM18.7115 20.2223C18.4044 20.2223 18.1631 20.4637 18.1631 20.7708V24.0616C18.1631 24.3687 18.4044 24.61 18.7115 24.61H23.0992C23.4064 24.61 23.6477 24.3687 23.6477 24.0616V20.7708C23.6477 20.4637 23.4064 20.2223 23.0992 20.2223H18.7115Z" fill="#8B8B8B"/>
<path d="M38.4562 27.9008H34.0685C31.9624 27.9008 30.2292 26.1677 30.2292 24.0616V20.7708C30.2292 18.6647 31.9624 16.9316 34.0685 16.9316H38.4562C40.5623 16.9316 42.2954 18.6647 42.2954 20.7708V24.0616C42.2954 26.1677 40.5623 27.9008 38.4562 27.9008ZM34.0685 20.2223C33.7613 20.2223 33.52 20.4637 33.52 20.7708V24.0616C33.52 24.3687 33.7613 24.61 34.0685 24.61H38.4562C38.7633 24.61 39.0046 24.3687 39.0046 24.0616V20.7708C39.0046 20.4637 38.7633 20.2223 38.4562 20.2223H34.0685Z" fill="#8B8B8B"/>
<path d="M43.941 13.0924C43.0416 13.0924 42.2957 12.3684 42.2957 11.469L42.2518 6.51086H34.2443C33.3448 6.51086 32.5989 5.76495 32.5989 4.86548C32.5989 3.966 33.3448 3.22009 34.2443 3.22009H43.8972C44.7966 3.22009 45.5426 3.94404 45.5426 4.84351L45.6084 11.425C45.5864 12.3465 44.8625 13.0924 43.941 13.0924Z" fill="#8B8B8B"/>
<path d="M5.964 74.974C6.31867 75.03 6.64067 75.1747 6.93 75.408C7.22867 75.6413 7.462 75.9307 7.63 76.276C7.80733 76.6213 7.896 76.99 7.896 77.382C7.896 77.8767 7.77 78.3247 7.518 78.726C7.266 79.118 6.89733 79.4307 6.412 79.664C5.936 79.888 5.37133 80 4.718 80H1.078V70.242H4.578C5.24067 70.242 5.80533 70.354 6.272 70.578C6.73867 70.7927 7.08867 71.0867 7.322 71.46C7.55533 71.8333 7.672 72.2533 7.672 72.72C7.672 73.2987 7.51333 73.7793 7.196 74.162C6.888 74.5353 6.47733 74.806 5.964 74.974ZM2.352 74.456H4.494C5.09133 74.456 5.55333 74.316 5.88 74.036C6.20667 73.756 6.37 73.3687 6.37 72.874C6.37 72.3793 6.20667 71.992 5.88 71.712C5.55333 71.432 5.082 71.292 4.466 71.292H2.352V74.456ZM4.606 78.95C5.24067 78.95 5.73533 78.8007 6.09 78.502C6.44467 78.2033 6.622 77.788 6.622 77.256C6.622 76.7147 6.43533 76.29 6.062 75.982C5.68867 75.6647 5.18933 75.506 4.564 75.506H2.352V78.95H4.606ZM16.6639 75.87C16.6639 76.1127 16.6499 76.3693 16.6219 76.64H10.4899C10.5366 77.396 10.7933 77.9887 11.2599 78.418C11.7359 78.838 12.3099 79.048 12.9819 79.048C13.5326 79.048 13.9899 78.922 14.3539 78.67C14.7273 78.4087 14.9886 78.0633 15.1379 77.634H16.5099C16.3046 78.3713 15.8939 78.9733 15.2779 79.44C14.6619 79.8973 13.8966 80.126 12.9819 80.126C12.2539 80.126 11.6006 79.9627 11.0219 79.636C10.4526 79.3093 10.0046 78.8473 9.67794 78.25C9.35127 77.6433 9.18794 76.9433 9.18794 76.15C9.18794 75.3567 9.3466 74.6613 9.66394 74.064C9.98127 73.4667 10.4246 73.0093 10.9939 72.692C11.5726 72.3653 12.2353 72.202 12.9819 72.202C13.7099 72.202 14.3539 72.3607 14.9139 72.678C15.4739 72.9953 15.9033 73.434 16.2019 73.994C16.5099 74.5447 16.6639 75.17 16.6639 75.87ZM15.3479 75.604C15.3479 75.1187 15.2406 74.7033 15.0259 74.358C14.8113 74.0033 14.5173 73.7373 14.1439 73.56C13.7799 73.3733 13.3739 73.28 12.9259 73.28C12.2819 73.28 11.7313 73.4853 11.2739 73.896C10.8259 74.3067 10.5693 74.876 10.5039 75.604H15.3479ZM19.6196 73.574C19.8436 73.1353 20.1609 72.7947 20.5716 72.552C20.9916 72.3093 21.5002 72.188 22.0976 72.188V73.504H21.7616C20.3336 73.504 19.6196 74.2787 19.6196 75.828V80H18.3456V72.328H19.6196V73.574ZM23.0922 76.136C23.0922 75.352 23.2509 74.666 23.5682 74.078C23.8856 73.4807 24.3196 73.0187 24.8702 72.692C25.4302 72.3653 26.0509 72.202 26.7322 72.202C27.4042 72.202 27.9876 72.3467 28.4822 72.636C28.9769 72.9253 29.3456 73.2893 29.5882 73.728V72.328H30.8762V80H29.5882V78.572C29.3362 79.02 28.9582 79.3933 28.4542 79.692C27.9596 79.9813 27.3809 80.126 26.7182 80.126C26.0369 80.126 25.4209 79.958 24.8702 79.622C24.3196 79.286 23.8856 78.8147 23.5682 78.208C23.2509 77.6013 23.0922 76.9107 23.0922 76.136ZM29.5882 76.15C29.5882 75.5713 29.4716 75.0673 29.2382 74.638C29.0049 74.2087 28.6876 73.882 28.2862 73.658C27.8942 73.4247 27.4602 73.308 26.9842 73.308C26.5082 73.308 26.0742 73.42 25.6822 73.644C25.2902 73.868 24.9776 74.1947 24.7442 74.624C24.5109 75.0533 24.3942 75.5573 24.3942 76.136C24.3942 76.724 24.5109 77.2373 24.7442 77.676C24.9776 78.1053 25.2902 78.4367 25.6822 78.67C26.0742 78.894 26.5082 79.006 26.9842 79.006C27.4602 79.006 27.8942 78.894 28.2862 78.67C28.6876 78.4367 29.0049 78.1053 29.2382 77.676C29.4716 77.2373 29.5882 76.7287 29.5882 76.15ZM36.7672 72.188C37.7005 72.188 38.4565 72.4727 39.0352 73.042C39.6138 73.602 39.9032 74.414 39.9032 75.478V80H38.6432V75.66C38.6432 74.8947 38.4518 74.3113 38.0692 73.91C37.6865 73.4993 37.1638 73.294 36.5012 73.294C35.8292 73.294 35.2925 73.504 34.8912 73.924C34.4992 74.344 34.3032 74.9553 34.3032 75.758V80H33.0292V72.328H34.3032V73.42C34.5552 73.028 34.8958 72.7247 35.3252 72.51C35.7638 72.2953 36.2445 72.188 36.7672 72.188ZM41.5083 76.136C41.5083 75.352 41.6669 74.666 41.9843 74.078C42.3016 73.4807 42.7356 73.0187 43.2863 72.692C43.8463 72.3653 44.4716 72.202 45.1623 72.202C45.7596 72.202 46.3149 72.342 46.8283 72.622C47.3416 72.8927 47.7336 73.252 48.0043 73.7V69.64H49.2923V80H48.0043V78.558C47.7523 79.0153 47.3789 79.3933 46.8843 79.692C46.3896 79.9813 45.8109 80.126 45.1483 80.126C44.4669 80.126 43.8463 79.958 43.2863 79.622C42.7356 79.286 42.3016 78.8147 41.9843 78.208C41.6669 77.6013 41.5083 76.9107 41.5083 76.136ZM48.0043 76.15C48.0043 75.5713 47.8876 75.0673 47.6543 74.638C47.4209 74.2087 47.1036 73.882 46.7023 73.658C46.3103 73.4247 45.8763 73.308 45.4003 73.308C44.9243 73.308 44.4903 73.42 44.0983 73.644C43.7063 73.868 43.3936 74.1947 43.1603 74.624C42.9269 75.0533 42.8103 75.5573 42.8103 76.136C42.8103 76.724 42.9269 77.2373 43.1603 77.676C43.3936 78.1053 43.7063 78.4367 44.0983 78.67C44.4903 78.894 44.9243 79.006 45.4003 79.006C45.8763 79.006 46.3103 78.894 46.7023 78.67C47.1036 78.4367 47.4209 78.1053 47.6543 77.676C47.8876 77.2373 48.0043 76.7287 48.0043 76.15ZM50.9692 76.136C50.9692 75.352 51.1279 74.666 51.4452 74.078C51.7625 73.4807 52.1965 73.0187 52.7472 72.692C53.3072 72.3653 53.9279 72.202 54.6092 72.202C55.2812 72.202 55.8645 72.3467 56.3592 72.636C56.8539 72.9253 57.2225 73.2893 57.4652 73.728V72.328H58.7532V80H57.4652V78.572C57.2132 79.02 56.8352 79.3933 56.3312 79.692C55.8365 79.9813 55.2579 80.126 54.5952 80.126C53.9139 80.126 53.2979 79.958 52.7472 79.622C52.1965 79.286 51.7625 78.8147 51.4452 78.208C51.1279 77.6013 50.9692 76.9107 50.9692 76.136ZM57.4652 76.15C57.4652 75.5713 57.3485 75.0673 57.1152 74.638C56.8819 74.2087 56.5645 73.882 56.1632 73.658C55.7712 73.4247 55.3372 73.308 54.8612 73.308C54.3852 73.308 53.9512 73.42 53.5592 73.644C53.1672 73.868 52.8545 74.1947 52.6212 74.624C52.3879 75.0533 52.2712 75.5573 52.2712 76.136C52.2712 76.724 52.3879 77.2373 52.6212 77.676C52.8545 78.1053 53.1672 78.4367 53.5592 78.67C53.9512 78.894 54.3852 79.006 54.8612 79.006C55.3372 79.006 55.7712 78.894 56.1632 78.67C56.5645 78.4367 56.8819 78.1053 57.1152 77.676C57.3485 77.2373 57.4652 76.7287 57.4652 76.15Z" fill="#8B8B8B"/>
</svg>
