<svg width="54" height="77" viewBox="0 0 54 77" fill="none" xmlns="http://www.w3.org/2000/svg">
<path d="M5.964 65.974C6.31867 66.03 6.64067 66.1747 6.93 66.408C7.22867 66.6413 7.462 66.9307 7.63 67.276C7.80733 67.6213 7.896 67.99 7.896 68.382C7.896 68.8767 7.77 69.3247 7.518 69.726C7.266 70.118 6.89733 70.4307 6.412 70.664C5.936 70.888 5.37133 71 4.718 71H1.078V61.242H4.578C5.24067 61.242 5.80533 61.354 6.272 61.578C6.73867 61.7927 7.08867 62.0867 7.322 62.46C7.55533 62.8333 7.672 63.2533 7.672 63.72C7.672 64.2987 7.51333 64.7793 7.196 65.162C6.888 65.5353 6.47733 65.806 5.964 65.974ZM2.352 65.456H4.494C5.09133 65.456 5.55333 65.316 5.88 65.036C6.20667 64.756 6.37 64.3687 6.37 63.874C6.37 63.3793 6.20667 62.992 5.88 62.712C5.55333 62.432 5.082 62.292 4.466 62.292H2.352V65.456ZM4.606 69.95C5.24067 69.95 5.73533 69.8007 6.09 69.502C6.44467 69.2033 6.622 68.788 6.622 68.256C6.622 67.7147 6.43533 67.29 6.062 66.982C5.68867 66.6647 5.18933 66.506 4.564 66.506H2.352V69.95H4.606ZM10.3219 62.082C10.0793 62.082 9.87394 61.998 9.70594 61.83C9.53794 61.662 9.45394 61.4567 9.45394 61.214C9.45394 60.9713 9.53794 60.766 9.70594 60.598C9.87394 60.43 10.0793 60.346 10.3219 60.346C10.5553 60.346 10.7513 60.43 10.9099 60.598C11.0779 60.766 11.1619 60.9713 11.1619 61.214C11.1619 61.4567 11.0779 61.662 10.9099 61.83C10.7513 61.998 10.5553 62.082 10.3219 62.082ZM10.9379 63.328V71H9.66394V63.328H10.9379ZM16.4553 71.126C15.7366 71.126 15.0833 70.9627 14.4953 70.636C13.9166 70.3093 13.4593 69.8473 13.1233 69.25C12.7966 68.6433 12.6333 67.9433 12.6333 67.15C12.6333 66.366 12.8013 65.6753 13.1373 65.078C13.4826 64.4713 13.9493 64.0093 14.5373 63.692C15.1253 63.3653 15.7833 63.202 16.5113 63.202C17.2393 63.202 17.8973 63.3653 18.4853 63.692C19.0733 64.0093 19.5353 64.4667 19.8713 65.064C20.2166 65.6613 20.3893 66.3567 20.3893 67.15C20.3893 67.9433 20.2119 68.6433 19.8573 69.25C19.5119 69.8473 19.0406 70.3093 18.4433 70.636C17.8459 70.9627 17.1833 71.126 16.4553 71.126ZM16.4553 70.006C16.9126 70.006 17.3419 69.8987 17.7433 69.684C18.1446 69.4693 18.4666 69.1473 18.7093 68.718C18.9613 68.2887 19.0873 67.766 19.0873 67.15C19.0873 66.534 18.9659 66.0113 18.7233 65.582C18.4806 65.1527 18.1633 64.8353 17.7713 64.63C17.3793 64.4153 16.9546 64.308 16.4973 64.308C16.0306 64.308 15.6013 64.4153 15.2093 64.63C14.8266 64.8353 14.5186 65.1527 14.2853 65.582C14.0519 66.0113 13.9353 66.534 13.9353 67.15C13.9353 67.7753 14.0473 68.3027 14.2713 68.732C14.5046 69.1613 14.8126 69.4833 15.1953 69.698C15.5779 69.9033 15.9979 70.006 16.4553 70.006ZM24.7803 71.126C24.1923 71.126 23.665 71.028 23.1983 70.832C22.7317 70.6267 22.363 70.3467 22.0923 69.992C21.8217 69.628 21.6723 69.2127 21.6443 68.746H22.9603C22.9977 69.1287 23.175 69.4413 23.4923 69.684C23.819 69.9267 24.2437 70.048 24.7663 70.048C25.2517 70.048 25.6343 69.9407 25.9143 69.726C26.1943 69.5113 26.3343 69.2407 26.3343 68.914C26.3343 68.578 26.185 68.3307 25.8863 68.172C25.5877 68.004 25.1257 67.8407 24.5003 67.682C23.931 67.5327 23.4643 67.3833 23.1003 67.234C22.7457 67.0753 22.4377 66.8467 22.1763 66.548C21.9243 66.24 21.7983 65.8387 21.7983 65.344C21.7983 64.952 21.915 64.5927 22.1483 64.266C22.3817 63.9393 22.713 63.6827 23.1423 63.496C23.5717 63.3 24.0617 63.202 24.6123 63.202C25.4617 63.202 26.1477 63.4167 26.6703 63.846C27.193 64.2753 27.473 64.8633 27.5103 65.61H26.2363C26.2083 65.2087 26.045 64.8867 25.7463 64.644C25.457 64.4013 25.065 64.28 24.5703 64.28C24.113 64.28 23.749 64.378 23.4783 64.574C23.2077 64.77 23.0723 65.0267 23.0723 65.344C23.0723 65.596 23.1517 65.806 23.3103 65.974C23.4783 66.1327 23.6837 66.2633 23.9263 66.366C24.1783 66.4593 24.5237 66.5667 24.9623 66.688C25.513 66.8373 25.961 66.9867 26.3063 67.136C26.6517 67.276 26.9457 67.4907 27.1883 67.78C27.4403 68.0693 27.571 68.4473 27.5803 68.914C27.5803 69.334 27.4637 69.712 27.2303 70.048C26.997 70.384 26.6657 70.65 26.2363 70.846C25.8163 71.0327 25.331 71.126 24.7803 71.126ZM33.6628 71L30.6528 67.612V71H29.3788V60.64H30.6528V66.73L33.6068 63.328H35.3848L31.7728 67.15L35.3988 71H33.6628ZM39.9299 71.126C39.2112 71.126 38.5579 70.9627 37.9699 70.636C37.3912 70.3093 36.9339 69.8473 36.5979 69.25C36.2712 68.6433 36.1079 67.9433 36.1079 67.15C36.1079 66.366 36.2759 65.6753 36.6119 65.078C36.9572 64.4713 37.4239 64.0093 38.0119 63.692C38.5999 63.3653 39.2579 63.202 39.9859 63.202C40.7139 63.202 41.3719 63.3653 41.9599 63.692C42.5479 64.0093 43.0099 64.4667 43.3459 65.064C43.6912 65.6613 43.8639 66.3567 43.8639 67.15C43.8639 67.9433 43.6865 68.6433 43.3319 69.25C42.9865 69.8473 42.5152 70.3093 41.9179 70.636C41.3205 70.9627 40.6579 71.126 39.9299 71.126ZM39.9299 70.006C40.3872 70.006 40.8165 69.8987 41.2179 69.684C41.6192 69.4693 41.9412 69.1473 42.1839 68.718C42.4359 68.2887 42.5619 67.766 42.5619 67.15C42.5619 66.534 42.4405 66.0113 42.1979 65.582C41.9552 65.1527 41.6379 64.8353 41.2459 64.63C40.8539 64.4153 40.4292 64.308 39.9719 64.308C39.5052 64.308 39.0759 64.4153 38.6839 64.63C38.3012 64.8353 37.9932 65.1527 37.7599 65.582C37.5265 66.0113 37.4099 66.534 37.4099 67.15C37.4099 67.7753 37.5219 68.3027 37.7459 68.732C37.9792 69.1613 38.2872 69.4833 38.6699 69.698C39.0525 69.9033 39.4725 70.006 39.9299 70.006ZM46.8129 64.742C47.0649 64.3033 47.4383 63.9393 47.9329 63.65C48.4369 63.3513 49.0203 63.202 49.6829 63.202C50.3643 63.202 50.9803 63.3653 51.5309 63.692C52.0909 64.0187 52.5296 64.4807 52.8469 65.078C53.1643 65.666 53.3229 66.352 53.3229 67.136C53.3229 67.9107 53.1643 68.6013 52.8469 69.208C52.5296 69.8147 52.0909 70.286 51.5309 70.622C50.9803 70.958 50.3643 71.126 49.6829 71.126C49.0296 71.126 48.4509 70.9813 47.9469 70.692C47.4523 70.3933 47.0743 70.0247 46.8129 69.586V74.64H45.5389V63.328H46.8129V64.742ZM52.0209 67.136C52.0209 66.5573 51.9043 66.0533 51.6709 65.624C51.4376 65.1947 51.1203 64.868 50.7189 64.644C50.3269 64.42 49.8929 64.308 49.4169 64.308C48.9503 64.308 48.5163 64.4247 48.1149 64.658C47.7229 64.882 47.4056 65.2133 47.1629 65.652C46.9296 66.0813 46.8129 66.5807 46.8129 67.15C46.8129 67.7287 46.9296 68.2373 47.1629 68.676C47.4056 69.1053 47.7229 69.4367 48.1149 69.67C48.5163 69.894 48.9503 70.006 49.4169 70.006C49.8929 70.006 50.3269 69.894 50.7189 69.67C51.1203 69.4367 51.4376 69.1053 51.6709 68.676C51.9043 68.2373 52.0209 67.724 52.0209 67.136Z" fill="#8B8B8B"/>
<path d="M25.4275 37.0006H10.6925C8.6625 37.0006 7 35.3731 7 33.3781V7.40812C7 2.82312 10.4125 0.74061 14.595 2.78811L22.365 6.60312C24.045 7.42562 25.4275 9.6131 25.4275 11.4681V37.0006Z" stroke="#8B8B8B" stroke-width="3" stroke-linecap="round" stroke-linejoin="round"/>
<path d="M42.0002 24.8558V31.4708C42.0002 35.2508 40.2502 37.0008 36.4702 37.0008H25.4277V16.7358L26.2502 16.9108L34.1252 18.6783L37.6777 19.4658C39.9877 19.9733 41.8777 21.1633 41.9827 24.5233C42.0002 24.6283 42.0002 24.7333 42.0002 24.8558Z" stroke="#8B8B8B" stroke-width="3" stroke-linecap="round" stroke-linejoin="round"/>
<path d="M13.1772 14.2505H19.2497" stroke="#8B8B8B" stroke-width="3" stroke-linecap="round" stroke-linejoin="round"/>
<path d="M13.1772 21.2505H19.2497" stroke="#8B8B8B" stroke-width="3" stroke-linecap="round" stroke-linejoin="round"/>
<path d="M34.125 18.6779V24.3129C34.125 26.4829 32.3575 28.2504 30.1875 28.2504C28.0175 28.2504 26.25 26.4829 26.25 24.3129V16.9104L34.125 18.6779Z" stroke="#8B8B8B" stroke-width="3" stroke-linecap="round" stroke-linejoin="round"/>
<path d="M41.9825 24.523C41.8775 26.588 40.1625 28.2505 38.0625 28.2505C35.8925 28.2505 34.125 26.483 34.125 24.313V18.678L37.6775 19.4655C39.9875 19.973 41.8775 21.163 41.9825 24.523Z" stroke="#8B8B8B" stroke-width="3" stroke-linecap="round" stroke-linejoin="round"/>
</svg>
