<svg width="68" height="58" viewBox="0 0 68 58" fill="none" xmlns="http://www.w3.org/2000/svg">
<path d="M4 16.5C4 7.11757 7.14996 4 16.6299 4H35.5896C45.0695 4 48.2195 7.11757 48.2195 16.5V41.5C48.2195 50.8824 45.0695 54 35.5896 54H16.6299C7.14996 54 4 47.7649 4 41.5V29.3563" stroke="#FFFDFC" stroke-width="7" stroke-linecap="round" stroke-linejoin="round"/>
<path d="M56.5601 44.1419L48.2202 38.3521V19.617L56.5601 13.8272C60.6401 11.0065 64 12.7286 64 17.687V40.3118C64 45.2702 60.6401 46.9923 56.5601 44.1419Z" stroke="#FFFDFC" stroke-width="7" stroke-linecap="round" stroke-linejoin="round"/>
<path d="M36.9997 21.5769C36.9997 19.1126 34.9897 17.1233 32.4997 17.1233C30.0097 17.1233 27.9998 19.1126 27.9998 21.5769C27.9998 24.0413 30.0097 26.0306 32.4997 26.0306" stroke="#FFFDFC" stroke-width="7" stroke-linecap="round" stroke-linejoin="round"/>
</svg>
