<svg width="48" height="84" viewBox="0 0 48 84" fill="none" xmlns="http://www.w3.org/2000/svg">
<path d="M26.3208 40.0809H26.0672C17.4031 40.0809 13.2272 36.666 12.5052 29.0167C12.4272 28.2167 13.0126 27.4947 13.8322 27.4166C14.6127 27.3386 15.3542 27.9435 15.4323 28.7435C15.9982 34.8708 18.8862 37.1539 26.0867 37.1539H26.3404C34.2824 37.1539 37.0923 34.3439 37.0923 26.4019V13.679C37.0923 5.73699 34.2824 2.92704 26.3404 2.92704H26.0867C18.8471 2.92704 15.9591 5.24915 15.4323 11.4935C15.3347 12.2936 14.6517 12.8985 13.8322 12.8204C13.0126 12.7619 12.4272 12.0399 12.4857 11.2398C13.1492 3.47342 17.3446 0 26.0672 0H26.3208C35.902 0 39.9999 4.09785 39.9999 13.679V26.4019C39.9999 35.9831 35.902 40.0809 26.3208 40.0809Z" fill="#8B8B8B"/>
<path d="M25.8501 21.504H3.64369C2.84364 21.504 2.18018 20.8405 2.18018 20.0405C2.18018 19.2404 2.84364 18.577 3.64369 18.577H25.8501C26.6501 18.577 27.3136 19.2404 27.3136 20.0405C27.3136 20.8405 26.6501 21.504 25.8501 21.504Z" fill="#8B8B8B"/>
<path d="M7.99569 28.0412C7.62493 28.0412 7.25417 27.9046 6.96147 27.6119L0.42442 21.0749C-0.141473 20.509 -0.141473 19.5723 0.42442 19.0064L6.96147 12.4694C7.52736 11.9035 8.46401 11.9035 9.02991 12.4694C9.5958 13.0353 9.5958 13.9719 9.02991 14.5378L3.52708 20.0407L9.02991 25.5435C9.5958 26.1094 9.5958 27.046 9.02991 27.6119C8.75672 27.9046 8.36645 28.0412 7.99569 28.0412Z" fill="#8B8B8B"/>
<path d="M9.37 78L5.352 73.548V78H4.078V68.242H5.352V72.764L9.384 68.242H10.994L6.57 73.128L11.036 78H9.37ZM19.4589 73.87C19.4589 74.1127 19.4449 74.3693 19.4169 74.64H13.2849C13.3315 75.396 13.5882 75.9887 14.0549 76.418C14.5309 76.838 15.1049 77.048 15.7769 77.048C16.3275 77.048 16.7849 76.922 17.1489 76.67C17.5222 76.4087 17.7835 76.0633 17.9329 75.634H19.3049C19.0995 76.3713 18.6889 76.9733 18.0729 77.44C17.4569 77.8973 16.6915 78.126 15.7769 78.126C15.0489 78.126 14.3955 77.9627 13.8169 77.636C13.2475 77.3093 12.7995 76.8473 12.4729 76.25C12.1462 75.6433 11.9829 74.9433 11.9829 74.15C11.9829 73.3567 12.1415 72.6613 12.4589 72.064C12.7762 71.4667 13.2195 71.0093 13.7889 70.692C14.3675 70.3653 15.0302 70.202 15.7769 70.202C16.5049 70.202 17.1489 70.3607 17.7089 70.678C18.2689 70.9953 18.6982 71.434 18.9969 71.994C19.3049 72.5447 19.4589 73.17 19.4589 73.87ZM18.1429 73.604C18.1429 73.1187 18.0355 72.7033 17.8209 72.358C17.6062 72.0033 17.3122 71.7373 16.9389 71.56C16.5749 71.3733 16.1689 71.28 15.7209 71.28C15.0769 71.28 14.5262 71.4853 14.0689 71.896C13.6209 72.3067 13.3642 72.876 13.2989 73.604H18.1429ZM22.4145 67.64V78H21.1405V67.64H22.4145ZM31.3898 70.328V78H30.1158V76.866C29.8731 77.258 29.5325 77.566 29.0938 77.79C28.6645 78.0047 28.1885 78.112 27.6658 78.112C27.0685 78.112 26.5318 77.9907 26.0558 77.748C25.5798 77.496 25.2018 77.1227 24.9218 76.628C24.6511 76.1333 24.5158 75.5313 24.5158 74.822V70.328H25.7758V74.654C25.7758 75.41 25.9671 75.9933 26.3498 76.404C26.7325 76.8053 27.2551 77.006 27.9178 77.006C28.5991 77.006 29.1358 76.796 29.5278 76.376C29.9198 75.956 30.1158 75.3447 30.1158 74.542V70.328H31.3898ZM33.0649 74.136C33.0649 73.352 33.2236 72.666 33.5409 72.078C33.8582 71.4807 34.2922 71.0187 34.8429 70.692C35.4029 70.3653 36.0236 70.202 36.7049 70.202C37.3769 70.202 37.9602 70.3467 38.4549 70.636C38.9496 70.9253 39.3182 71.2893 39.5609 71.728V70.328H40.8489V78H39.5609V76.572C39.3089 77.02 38.9309 77.3933 38.4269 77.692C37.9322 77.9813 37.3536 78.126 36.6909 78.126C36.0096 78.126 35.3936 77.958 34.8429 77.622C34.2922 77.286 33.8582 76.8147 33.5409 76.208C33.2236 75.6013 33.0649 74.9107 33.0649 74.136ZM39.5609 74.15C39.5609 73.5713 39.4442 73.0673 39.2109 72.638C38.9776 72.2087 38.6602 71.882 38.2589 71.658C37.8669 71.4247 37.4329 71.308 36.9569 71.308C36.4809 71.308 36.0469 71.42 35.6549 71.644C35.2629 71.868 34.9502 72.1947 34.7169 72.624C34.4836 73.0533 34.3669 73.5573 34.3669 74.136C34.3669 74.724 34.4836 75.2373 34.7169 75.676C34.9502 76.1053 35.2629 76.4367 35.6549 76.67C36.0469 76.894 36.4809 77.006 36.9569 77.006C37.4329 77.006 37.8669 76.894 38.2589 76.67C38.6602 76.4367 38.9776 76.1053 39.2109 75.676C39.4442 75.2373 39.5609 74.7287 39.5609 74.15ZM44.2758 71.574C44.4998 71.1353 44.8172 70.7947 45.2278 70.552C45.6478 70.3093 46.1565 70.188 46.7538 70.188V71.504H46.4178C44.9898 71.504 44.2758 72.2787 44.2758 73.828V78H43.0018V70.328H44.2758V71.574Z" fill="#8B8B8B"/>
</svg>
