<svg width="47" height="84" viewBox="0 0 47 84" fill="none" xmlns="http://www.w3.org/2000/svg">
<path d="M22.321 40.0809H22.0673C13.4033 40.0809 9.22736 36.666 8.50535 29.0167C8.4273 28.2167 9.01271 27.4947 9.83228 27.4166C10.6128 27.3386 11.3543 27.9435 11.4324 28.7435C11.9983 34.8708 14.8863 37.1539 22.0868 37.1539H22.3405C30.2825 37.1539 33.0925 34.3439 33.0925 26.4019V13.679C33.0925 5.73699 30.2825 2.92704 22.3405 2.92704H22.0868C14.8473 2.92704 11.9593 5.24915 11.4324 11.4935C11.3348 12.2936 10.6518 12.8985 9.83228 12.8204C9.01271 12.7619 8.4273 12.0399 8.48584 11.2398C9.1493 3.47342 13.3447 0 22.0673 0H22.321C31.9021 0 36 4.09785 36 13.679V26.4019C36 35.9831 31.9021 40.0809 22.321 40.0809Z" fill="#8B8B8B"/>
<path d="M23.6699 21.504H1.46352C0.663462 21.504 0 20.8405 0 20.0405C0 19.2404 0.663462 18.577 1.46352 18.577H23.6699C24.4699 18.577 25.1334 19.2404 25.1334 20.0405C25.1334 20.8405 24.4699 21.504 23.6699 21.504Z" fill="#8B8B8B"/>
<path d="M20.0043 12.045C20.3751 12.045 20.7458 12.1816 21.0385 12.4743L27.5756 19.0113C28.1415 19.5772 28.1415 20.5139 27.5756 21.0798L21.0385 27.6168C20.4726 28.1827 19.536 28.1827 18.9701 27.6168C18.4042 27.0509 18.4042 26.1143 18.9701 25.5484L24.4729 20.0456L18.9701 14.5427C18.4042 13.9768 18.4042 13.0402 18.9701 12.4743C19.2433 12.1816 19.6336 12.045 20.0043 12.045Z" fill="#8B8B8B"/>
<path d="M12.976 68.312V78H11.702V70.776L8.482 78H7.586L4.352 70.762V78H3.078V68.312H4.45L8.034 76.32L11.618 68.312H12.976ZM14.6606 74.136C14.6606 73.352 14.8193 72.666 15.1366 72.078C15.4539 71.4807 15.8879 71.0187 16.4386 70.692C16.9986 70.3653 17.6193 70.202 18.3006 70.202C18.9726 70.202 19.5559 70.3467 20.0506 70.636C20.5453 70.9253 20.9139 71.2893 21.1566 71.728V70.328H22.4446V78H21.1566V76.572C20.9046 77.02 20.5266 77.3933 20.0226 77.692C19.5279 77.9813 18.9493 78.126 18.2866 78.126C17.6053 78.126 16.9893 77.958 16.4386 77.622C15.8879 77.286 15.4539 76.8147 15.1366 76.208C14.8193 75.6013 14.6606 74.9107 14.6606 74.136ZM21.1566 74.15C21.1566 73.5713 21.0399 73.0673 20.8066 72.638C20.5733 72.2087 20.2559 71.882 19.8546 71.658C19.4626 71.4247 19.0286 71.308 18.5526 71.308C18.0766 71.308 17.6426 71.42 17.2506 71.644C16.8586 71.868 16.5459 72.1947 16.3126 72.624C16.0793 73.0533 15.9626 73.5573 15.9626 74.136C15.9626 74.724 16.0793 75.2373 16.3126 75.676C16.5459 76.1053 16.8586 76.4367 17.2506 76.67C17.6426 76.894 18.0766 77.006 18.5526 77.006C19.0286 77.006 19.4626 76.894 19.8546 76.67C20.2559 76.4367 20.5733 76.1053 20.8066 75.676C21.0399 75.2373 21.1566 74.7287 21.1566 74.15ZM27.3135 78.126C26.7255 78.126 26.1982 78.028 25.7315 77.832C25.2649 77.6267 24.8962 77.3467 24.6255 76.992C24.3549 76.628 24.2055 76.2127 24.1775 75.746H25.4935C25.5309 76.1287 25.7082 76.4413 26.0255 76.684C26.3522 76.9267 26.7769 77.048 27.2995 77.048C27.7849 77.048 28.1675 76.9407 28.4475 76.726C28.7275 76.5113 28.8675 76.2407 28.8675 75.914C28.8675 75.578 28.7182 75.3307 28.4195 75.172C28.1209 75.004 27.6589 74.8407 27.0335 74.682C26.4642 74.5327 25.9975 74.3833 25.6335 74.234C25.2789 74.0753 24.9709 73.8467 24.7095 73.548C24.4575 73.24 24.3315 72.8387 24.3315 72.344C24.3315 71.952 24.4482 71.5927 24.6815 71.266C24.9149 70.9393 25.2462 70.6827 25.6755 70.496C26.1049 70.3 26.5949 70.202 27.1455 70.202C27.9949 70.202 28.6809 70.4167 29.2035 70.846C29.7262 71.2753 30.0062 71.8633 30.0435 72.61H28.7695C28.7415 72.2087 28.5782 71.8867 28.2795 71.644C27.9902 71.4013 27.5982 71.28 27.1035 71.28C26.6462 71.28 26.2822 71.378 26.0115 71.574C25.7409 71.77 25.6055 72.0267 25.6055 72.344C25.6055 72.596 25.6849 72.806 25.8435 72.974C26.0115 73.1327 26.2169 73.2633 26.4595 73.366C26.7115 73.4593 27.0569 73.5667 27.4955 73.688C28.0462 73.8373 28.4942 73.9867 28.8395 74.136C29.1849 74.276 29.4789 74.4907 29.7215 74.78C29.9735 75.0693 30.1042 75.4473 30.1135 75.914C30.1135 76.334 29.9969 76.712 29.7635 77.048C29.5302 77.384 29.1989 77.65 28.7695 77.846C28.3495 78.0327 27.8642 78.126 27.3135 78.126ZM38.716 70.328V78H37.442V76.866C37.1993 77.258 36.8587 77.566 36.42 77.79C35.9907 78.0047 35.5147 78.112 34.992 78.112C34.3947 78.112 33.858 77.9907 33.382 77.748C32.906 77.496 32.528 77.1227 32.248 76.628C31.9773 76.1333 31.842 75.5313 31.842 74.822V70.328H33.102V74.654C33.102 75.41 33.2933 75.9933 33.676 76.404C34.0587 76.8053 34.5813 77.006 35.244 77.006C35.9253 77.006 36.462 76.796 36.854 76.376C37.246 75.956 37.442 75.3447 37.442 74.542V70.328H38.716ZM45.1511 78L42.1411 74.612V78H40.8671V67.64H42.1411V73.73L45.0951 70.328H46.8731L43.2611 74.15L46.8871 78H45.1511Z" fill="#8B8B8B"/>
</svg>
