<svg width="45" height="74" viewBox="0 0 45 74" fill="none" xmlns="http://www.w3.org/2000/svg">
<path d="M4.52276 25.2444C3.74337 25.5331 2.88194 25.6981 2 25.6981C2.18459 33.1025 4.37919 35 12.2346 35H32.7449C40.949 35 43 32.9375 43 24.6875V12.3125C43 4.0625 40.949 2 32.7449 2H12.2346C4.37919 2 2.18459 3.8975 2 11.2812C5.95847 11.2812 9.15807 14.5194 9.15807 18.5" stroke="#8B8B8B" stroke-width="3" stroke-linecap="round" stroke-linejoin="round"/>
<path d="M16.3369 2V9.21875" stroke="#8B8B8B" stroke-width="3" stroke-linecap="round" stroke-linejoin="round"/>
<path d="M16.3369 27.7812V35" stroke="#8B8B8B" stroke-width="3" stroke-linecap="round" stroke-linejoin="round"/>
<path d="M28.3561 23.0578C28.11 22.9341 27.8023 22.9341 27.5562 23.0578L25.0335 24.3985C24.3976 24.7285 23.6798 24.1922 23.8029 23.491L24.2951 20.6653C24.3361 20.3766 24.2541 20.1085 24.049 19.9022L22.0185 17.9016C21.5057 17.4066 21.7929 16.5403 22.4902 16.4372L25.3206 16.0247C25.6078 15.9835 25.8334 15.8185 25.9564 15.5503L27.2075 12.9722C27.5152 12.3328 28.4177 12.3328 28.7253 12.9722L29.9969 15.5503C30.12 15.7978 30.3661 15.9835 30.6328 16.0247L33.4632 16.4372C34.1605 16.5403 34.4477 17.4066 33.9349 17.9016L31.8839 19.9022C31.6788 20.0878 31.5967 20.3766 31.6378 20.6653" stroke="#8B8B8B" stroke-width="3" stroke-linecap="round" stroke-linejoin="round"/>
<path d="M14.084 58.242V59.278H11.424V68H10.15V59.278H7.476V58.242H14.084ZM16.3102 59.082C16.0676 59.082 15.8622 58.998 15.6942 58.83C15.5262 58.662 15.4422 58.4567 15.4422 58.214C15.4422 57.9713 15.5262 57.766 15.6942 57.598C15.8622 57.43 16.0676 57.346 16.3102 57.346C16.5436 57.346 16.7396 57.43 16.8982 57.598C17.0662 57.766 17.1502 57.9713 17.1502 58.214C17.1502 58.4567 17.0662 58.662 16.8982 58.83C16.7396 58.998 16.5436 59.082 16.3102 59.082ZM16.9262 60.328V68H15.6522V60.328H16.9262ZM23.3815 68L20.3715 64.612V68H19.0975V57.64H20.3715V63.73L23.3255 60.328H25.1035L21.4915 64.15L25.1175 68H23.3815ZM33.3026 63.87C33.3026 64.1127 33.2886 64.3693 33.2606 64.64H27.1286C27.1753 65.396 27.4319 65.9887 27.8986 66.418C28.3746 66.838 28.9486 67.048 29.6206 67.048C30.1713 67.048 30.6286 66.922 30.9926 66.67C31.3659 66.4087 31.6273 66.0633 31.7766 65.634H33.1486C32.9433 66.3713 32.5326 66.9733 31.9166 67.44C31.3006 67.8973 30.5353 68.126 29.6206 68.126C28.8926 68.126 28.2393 67.9627 27.6606 67.636C27.0913 67.3093 26.6433 66.8473 26.3166 66.25C25.9899 65.6433 25.8266 64.9433 25.8266 64.15C25.8266 63.3567 25.9853 62.6613 26.3026 62.064C26.6199 61.4667 27.0633 61.0093 27.6326 60.692C28.2113 60.3653 28.8739 60.202 29.6206 60.202C30.3486 60.202 30.9926 60.3607 31.5526 60.678C32.1126 60.9953 32.5419 61.434 32.8406 61.994C33.1486 62.5447 33.3026 63.17 33.3026 63.87ZM31.9866 63.604C31.9866 63.1187 31.8793 62.7033 31.6646 62.358C31.4499 62.0033 31.1559 61.7373 30.7826 61.56C30.4186 61.3733 30.0126 61.28 29.5646 61.28C28.9206 61.28 28.3699 61.4853 27.9126 61.896C27.4646 62.3067 27.2079 62.876 27.1426 63.604H31.9866ZM36.5383 61.378V65.9C36.5383 66.2733 36.6176 66.5393 36.7763 66.698C36.9349 66.8473 37.2103 66.922 37.6022 66.922H38.5403V68H37.3923C36.6829 68 36.1509 67.8367 35.7963 67.51C35.4416 67.1833 35.2643 66.6467 35.2643 65.9V61.378H34.2703V60.328H35.2643V58.396H36.5383V60.328H38.5403V61.378H36.5383Z" fill="#8B8B8B"/>
</svg>
